<svg id="a45af197-b8b6-4c91-9128-4abb56b81e95" data-name="Layer 1" xmlns="http://www.w3.org/2000/svg" viewBox="0 0 372.66 53.32"><defs><style>.a95b92e2-21b6-4941-aebf-1e24593560e5{fill:#ee362d;}.b31c35f1-b68c-4767-9b42-fc6f08b15844{fill:#6d6f6e;}.b010529f-8534-4670-9bfc-0c669400821a{fill:#6d6e70;}</style></defs><rect class="a95b92e2-21b6-4941-aebf-1e24593560e5" x="5.74" y="2.85" width="38.79" height="10.38" rx="1.94"/><rect class="a95b92e2-21b6-4941-aebf-1e24593560e5" x="5.74" y="21.55" width="24.59" height="10.38" rx="1.94"/><rect class="b31c35f1-b68c-4767-9b42-fc6f08b15844" x="40.61" y="21.55" width="24.59" height="10.38" rx="1.94"/><rect class="a95b92e2-21b6-4941-aebf-1e24593560e5" x="5.74" y="40.09" width="10.38" height="10.38" rx="1.94"/><rect class="b31c35f1-b68c-4767-9b42-fc6f08b15844" x="54.83" y="2.85" width="10.38" height="10.38" rx="1.94"/><rect class="b31c35f1-b68c-4767-9b42-fc6f08b15844" x="26.42" y="40.09" width="38.79" height="10.38" rx="1.94"/><path class="a95b92e2-21b6-4941-aebf-1e24593560e5" d="M89.68,14.18V27.41h19v4.66h-19V47.42H84.26v-38h26.79v4.72Z"/><path class="a95b92e2-21b6-4941-aebf-1e24593560e5" d="M115.75,33.22c0-8.4,6.6-14.6,15.45-14.6s15.45,6.2,15.45,14.6-6.55,14.6-15.45,14.6S115.75,41.62,115.75,33.22Zm26,0a10.55,10.55,0,0,0-21.1,0,10.55,10.55,0,0,0,21.1,0Z"/><path class="a95b92e2-21b6-4941-aebf-1e24593560e5" d="M173.2,47.42l-6.1-8.5a10.87,10.87,0,0,1-1.3,0h-6.75v8.45H154.2V19h11.6C173.25,19,178,22.67,178,29a9.09,9.09,0,0,1-6.25,9l6.75,9.4ZM173.05,29c0-3.85-2.6-6-7.55-6h-6.45V35h6.45C170.45,35,173.05,32.87,173.05,29Z"/><path class="a95b92e2-21b6-4941-aebf-1e24593560e5" d="M205.46,33.07h4.7v11.1a17.2,17.2,0,0,1-10.95,3.65c-9.05,0-15.65-6.2-15.65-14.6s6.6-14.6,15.45-14.6c5,0,8.8,1.45,11.45,4.45l-3.1,3.15a10.87,10.87,0,0,0-8.25-3.4c-6.15,0-10.65,4.35-10.65,10.4s4.5,10.4,10.8,10.4a11.58,11.58,0,0,0,6.2-1.6Z"/><path class="a95b92e2-21b6-4941-aebf-1e24593560e5" d="M240.71,43.37v4.05h-21.3V19h20.75v4h-15.9v8h14.15V35H224.26v8.4Z"/><path class="b010529f-8534-4670-9bfc-0c669400821a" d="M254.69,14.18V27.41h19v4.66h-19V47.42h-5.43v-38h26.79v4.72Z"/><path class="b010529f-8534-4670-9bfc-0c669400821a" d="M283.4,19h4.85V43.37H303.5v4.05H283.4Z"/><path class="b010529f-8534-4670-9bfc-0c669400821a" d="M308.35,35.27V19h4.85V35.17c0,5.55,2.7,8.45,7.65,8.45s7.65-2.85,7.65-8.45V19h4.76V35.27c0,7.95-4.66,12.55-12.46,12.55S308.35,43.22,308.35,35.27Z"/><path class="b010529f-8534-4670-9bfc-0c669400821a" d="M360.16,47.42l-8.05-11-8.15,11h-5.55l11-14.55L339.06,19h5.45l7.65,10.3,7.6-10.3h5.4l-10.35,13.8,10.95,14.6Z"/></svg>
